<?xml version="1.0" encoding="UTF-8" standalone="no"?>
<!DOCTYPE svg PUBLIC "-//W3C//DTD SVG 1.1//EN" "http://www.w3.org/Graphics/SVG/1.1/DTD/svg11.dtd">
<svg width="100%" height="100%" viewBox="0 0 1280 326" version="1.1" xmlns="http://www.w3.org/2000/svg" xmlns:xlink="http://www.w3.org/1999/xlink" xml:space="preserve" xmlns:serif="http://www.serif.com/" style="fill-rule:evenodd;clip-rule:evenodd;stroke-linejoin:round;stroke-miterlimit:2;">
    <g transform="matrix(4,0,0,4,0,1)">
        <g>
            <path d="M54.287,41.009L54.287,38.102L60.323,38.102L60.323,40.475C60.323,41.068 60.739,41.444 61.253,41.444L75.918,41.444C76.472,41.444 76.848,41.068 76.848,40.475L76.848,38.873C76.848,38.339 76.413,38.062 75.938,37.944L60.541,36.263C57.315,35.512 54.386,33.95 54.327,29.461L54.327,27.187C54.228,23.806 57.019,20.978 60.423,20.978L76.493,20.978C79.838,20.978 82.846,23.885 82.846,27.345L82.846,30.252L76.849,30.252L76.849,27.919C76.849,27.326 76.433,26.95 75.919,26.95L61.254,26.95C60.7,26.95 60.324,27.365 60.324,27.919L60.324,29.382C60.324,29.876 60.74,30.252 61.195,30.39L76.85,32.17C80.59,33.04 82.847,34.8 82.847,38.517L82.906,41.265C82.906,44.864 80.096,47.454 76.81,47.454L60.72,47.454C57.257,47.454 54.347,44.488 54.347,41.048L54.307,41.048L54.287,41.008L54.287,41.009ZM88.09,20.959L109.306,20.959C112.65,20.959 115.342,23.609 115.342,27.049L115.342,33.535C115.342,37.094 112.789,39.566 109.504,39.566L94.166,39.566L94.166,47.436L88.13,47.436L88.13,20.959L88.09,20.959ZM108.376,33.574C108.93,33.574 109.345,33.159 109.345,32.605L109.345,27.958C109.345,27.365 108.93,26.95 108.376,26.95L94.126,26.95L94.126,33.574L108.376,33.574ZM123.972,20.94L139.31,20.94L146.751,47.416L140.477,47.416L138.795,41.366L124.427,41.366L122.764,47.417L116.451,47.417L123.952,20.941L123.992,20.941L123.972,20.941L123.972,20.94ZM137.43,35.453L134.956,26.595L128.365,26.595L125.872,35.453L137.469,35.453L137.43,35.453ZM32.102,52.28L34.418,52.28C36.041,52.28 37.604,52.913 38.752,54.02L55,69.403L55,52.299L61.036,52.299L61.036,78.735L58.938,78.735C57.315,78.735 55.791,78.102 54.604,77.015L38.138,61.474L38.138,78.736L32.102,78.736L32.102,52.259L32.102,52.28ZM106.18,52.28L108.495,52.28C110.109,52.279 111.663,52.903 112.829,54.02L129.078,69.403L129.078,52.299L135.114,52.299L135.114,78.735L133.016,78.735C131.393,78.735 129.869,78.102 128.682,77.015L112.216,61.474L112.216,78.736L106.18,78.736L106.18,52.259L106.18,52.28ZM64.619,72.349L64.619,58.666C64.619,55.146 67.647,52.299 70.932,52.299L85.439,52.299C88.784,52.299 91.812,55.206 91.812,58.666L91.812,61.849L85.776,61.849L85.776,59.259C85.776,58.666 85.36,58.251 84.806,58.251L71.566,58.251C71.012,58.251 70.596,58.686 70.596,59.259L70.596,71.716C70.596,72.309 71.031,72.724 71.566,72.724L84.806,72.724C85.36,72.724 85.776,72.309 85.776,71.755L85.776,69.007L77.939,69.007L77.939,63.985L91.812,63.985L91.812,72.349C91.812,75.868 88.685,78.716 85.4,78.716L70.972,78.716C67.588,78.716 64.619,75.79 64.619,72.349ZM200.166,52.279L221.342,52.279C224.647,52.279 227.379,54.929 227.379,58.369L227.379,64.855C227.379,67.702 225.756,69.857 223.401,70.569L227.893,78.755L221.58,78.755L217.206,70.885L206.202,70.885L206.202,78.755L200.166,78.755L200.166,52.279ZM220.392,64.894C220.947,64.894 221.362,64.479 221.362,63.925L221.362,59.278C221.362,58.685 220.947,58.27 220.392,58.27L206.202,58.27L206.202,64.894L220.392,64.894ZM169.847,38.102L169.847,40.435C169.847,40.438 169.847,40.441 169.847,40.444C169.847,40.971 169.414,41.404 168.887,41.404C168.884,41.404 168.88,41.404 168.877,41.404L155.597,41.404C155.594,41.404 155.59,41.404 155.587,41.404C155.06,41.404 154.627,40.971 154.627,40.444C154.627,40.441 154.627,40.438 154.627,40.435L154.627,27.939C154.627,27.385 155.043,26.931 155.557,26.931L168.877,26.931C169.411,26.931 169.847,27.346 169.847,27.939L169.847,30.252L175.883,30.252L175.883,27.345C175.883,23.885 172.855,20.978 169.51,20.978L155.003,20.978C151.659,20.978 148.65,23.825 148.65,27.345L148.65,41.028C148.65,44.488 151.659,47.395 155.003,47.395L169.47,47.395C172.914,47.395 175.883,44.469 175.883,41.028L175.883,38.102L169.847,38.102ZM101.824,52.279L95.709,52.279L95.709,78.755L101.824,78.755L101.824,52.279ZM165.651,72.724L144.97,72.724L144.97,68.671L165.651,68.671L165.651,62.64L144.97,62.64L144.97,58.27L165.651,58.27L165.651,52.299L138.934,52.299L138.934,78.755L165.651,78.755L165.651,72.724ZM28.005,72.724L7.284,72.724L7.284,68.671L28.005,68.671L28.005,62.64L7.284,62.64L7.284,58.27L28.005,58.27L28.005,52.299L1.287,52.299L1.287,78.755L28.005,78.755L28.005,72.724ZM196.683,72.724L175.962,72.724L175.962,68.671L196.683,68.671L196.683,62.64L175.962,62.64L175.962,58.27L196.683,58.27L196.683,52.299L169.926,52.299L169.926,78.755L196.683,78.755L196.683,72.724ZM206.183,41.404L185.462,41.404L185.462,37.331L206.183,37.331L206.183,31.32L185.462,31.32L185.462,26.95L206.183,26.95L206.183,20.959L179.426,20.959L179.426,47.415L206.183,47.415L206.183,41.404ZM230.348,72.329L230.348,69.422L236.384,69.422L236.384,71.795C236.384,72.388 236.799,72.764 237.314,72.764L251.979,72.764C252.533,72.764 252.909,72.388 252.909,71.795L252.909,70.193C252.909,69.659 252.474,69.382 251.999,69.264L236.602,67.583C233.376,66.832 230.447,65.27 230.387,60.781L230.387,58.507C230.288,55.126 233.079,52.298 236.483,52.298L252.553,52.298C255.898,52.298 258.906,55.205 258.906,58.665L258.906,61.572L252.909,61.572L252.909,59.239C252.909,58.646 252.494,58.27 251.979,58.27L237.314,58.27C236.76,58.27 236.384,58.685 236.384,59.239L236.384,60.702C236.384,61.196 236.8,61.572 237.255,61.71L252.909,63.49C256.65,64.36 258.906,66.12 258.906,69.837L258.965,72.585C258.965,76.184 256.155,78.774 252.87,78.774L236.78,78.774C233.316,78.774 230.407,75.808 230.407,72.368L230.367,72.368L230.348,72.328L230.348,72.329ZM319.427,41.859C319.922,41.048 319.744,40.238 319.368,39.368C318.952,38.122 318.003,36.402 317.844,34.998C318.101,34.128 318.121,33.041 317.844,32.091C317.567,30.687 316.498,29.303 316.122,27.879C315.905,27.187 315.41,26.376 315.212,25.566C314.876,24.439 315.054,22.976 314.025,22.224C313.589,21.809 312.718,21.67 312.778,20.978C312.778,20.662 313.114,20.385 313.253,20.108C313.371,19.693 313.253,19.396 313.431,18.922C314.025,17.241 314.796,15.521 314.302,13.682C314.183,12.871 313.49,12.219 313.292,11.467C313.233,11.19 313.233,10.874 313.035,10.617C310.383,8.659 306.504,8.837 304.604,11.487C303.417,11.922 303.159,12.416 303.08,13.603C303.08,14.196 302.665,15.106 303.14,15.481C303.694,15.817 304.07,16.391 304.07,17.043C304.347,17.893 304.505,18.012 303.535,18.012C302.565,18.012 301.596,18.605 300.685,18.862C299.993,19.178 299.221,19.238 298.746,19.831C298.311,20.543 297.123,22.52 297.004,23.548L297.004,25.328L302.407,25.328C305.317,25.328 307.79,26.554 309.413,28.551L308.918,28.729C308.602,28.848 307.474,28.848 307.474,28.848L305.475,29.54L305.257,30.074L307.078,29.738L307.632,29.797C307.632,29.797 308.127,29.975 308.166,30.212L308.345,30.212L308.681,30.054C309.156,29.955 309.69,29.876 310.185,29.639C310.898,30.865 311.333,32.328 311.432,33.91L311.432,37.726C311.432,40.732 310.086,42.531 307.098,43.44C300.349,45.437 293.66,47.632 286.97,49.748C285.941,50.064 285.011,50.618 284.002,51.053C284.061,51.33 284.12,51.587 284.16,51.864L311.254,51.864L311.254,59.911L276.283,59.911C276.283,56.827 276.184,53.801 276.283,50.796L278.064,49.056L277.53,48.898L277.53,48.265L277.649,48.206L277.55,47.87L276.422,48.285C276.837,46.011 278.539,44.666 280.855,43.955C284.081,42.947 288.831,41.325 288.831,41.325L287.01,43.52C287.01,43.52 289.563,41.997 290.632,41.681C291.403,41.147 292.156,40.594 293.046,40.218C293.105,40.218 293.165,40.159 293.165,40.099L300.408,37.825C301.002,37.647 301.912,37.291 302.348,37.014C303.476,36.243 303.634,34.048 302.19,33.514C302.724,33.257 302.724,32.743 303.258,32.486C303.199,32.486 303.14,32.427 303.1,32.387L300.844,32.861L300.725,32.861C300.507,32.96 300.29,33.039 300.072,33.177L296.094,33.177C296.261,32.996 296.407,32.797 296.529,32.584C296.707,32.327 296.411,31.951 296.114,32.05C295.342,32.327 294.59,32.742 293.858,33.137L285.862,33.137C284.2,33.137 283.586,33.908 283.586,35.45C283.586,36.992 283.527,36.893 283.467,37.823L275.788,37.823L275.788,33.414C275.788,33.157 275.788,32.92 275.848,32.663C276.184,30.172 277.748,27.977 279.905,26.692C281.033,26.692 282.122,26.593 283.25,26.514C283.408,26.732 283.843,26.791 283.843,26.791L284.18,26.455L284.813,26.455L284.397,26.079C284.397,26.079 283.863,25.901 283.626,25.802C284.12,25.683 284.635,25.545 285.13,25.466L296.351,25.466C296.292,24.28 294.135,19.04 293.541,18.526C292.452,17.616 292.314,16.628 292.314,16.569C292.314,16.075 292.433,15.007 292.057,14.295C291.938,14.077 290.968,12.14 289.84,11.982C288.751,11.804 286.713,11.883 286.377,11.547C286.278,11.448 286.198,11.329 286.198,11.231C286.198,11.133 286.198,11.132 286.258,11.112C286.377,10.993 286.634,10.954 286.891,10.855C287.148,10.756 287.604,10.539 287.703,10.38C287.96,9.945 287.96,9.154 287.96,8.264C287.96,7.374 287.9,7.137 287.544,6.741C287.366,6.523 287.109,6.484 286.891,6.464C286.772,6.464 286.673,6.464 286.574,6.405C286.476,6.405 286.396,6.346 286.317,6.286C285.981,6.009 286.001,5.633 285.763,5.06C285.585,4.625 285.347,4.15 284.793,3.557C283.863,2.529 282.379,1.837 280.855,1.777C279.925,1.777 278.955,1.955 278.005,2.469C275.511,3.814 275.452,5.969 275.452,6.087C275.452,6.265 275.511,6.838 275.135,6.937C274.918,6.996 274.66,6.996 274.542,7.056C274.542,7.056 274.007,7.313 273.829,7.55C273.651,7.807 273.651,8.084 273.651,8.321C273.651,8.558 273.77,9.764 273.869,10.259C273.968,10.694 274.423,11.129 274.68,11.228C274.68,11.228 274.739,11.228 274.779,11.268L274.937,11.268C274.937,11.268 275.412,11.268 275.689,11.426C275.788,11.466 275.868,11.525 275.907,11.604C275.907,11.644 275.967,11.723 276.006,11.821C276.006,11.821 276.006,11.92 276.065,11.94C276.065,12.059 276.125,12.217 276.065,12.355C275.887,12.573 275.531,12.454 275.056,13.008C274.838,13.285 274.74,13.7 274.462,14.076C274.184,14.452 272.741,14.333 272.048,14.551C271.711,14.67 271.355,14.867 271.118,15.144C270.583,15.678 269.554,16.429 268.901,16.548C268.486,16.647 267.674,16.607 267.397,16.172C267.219,15.895 267.219,15.757 267.021,15.401C266.863,15.124 265.616,14.432 265.359,14.116C265.109,13.789 264.872,13.452 264.646,13.108L264.646,13.049C264.587,12.95 264.587,12.871 264.646,12.772C264.705,12.614 265.141,11.704 265.2,11.546C265.319,11.111 265.537,9.806 265.695,9.292C265.754,9.134 265.695,8.916 265.596,8.758C265.596,8.699 265.279,8.6 265.18,8.659C264.804,8.778 264.626,9.035 264.369,9.43C264.191,9.707 264.052,9.687 263.934,9.529C263.816,9.371 263.716,9.094 263.657,8.837C263.597,8.679 263.538,8.283 263.439,8.125C263.379,7.993 263.338,7.854 263.32,7.71C263.201,6.8 262.944,5.713 262.726,5.001C262.667,4.783 262.608,4.586 262.449,4.507C262.39,4.507 262.331,4.467 262.271,4.467C261.935,4.467 261.717,4.744 261.717,5.1C261.717,5.753 261.658,6.128 261.539,5.95C261.539,5.95 261.539,5.891 261.48,5.831C261.301,5.396 261.301,5.356 261.005,4.704C261.005,4.605 260.906,4.526 260.846,4.447C260.688,4.269 260.47,4.269 260.253,4.447C260.134,4.546 259.876,4.763 259.778,4.922C259.52,5.397 259.342,5.476 259.065,5.614C258.808,5.713 258.788,6.029 258.847,6.326L258.847,6.385C258.907,6.761 258.847,6.978 258.748,7.097C258.649,7.196 258.491,7.057 258.273,7.315C258.155,7.473 258.095,7.651 258.115,7.809C258.115,8.086 258.234,8.363 258.273,8.402C258.709,9.331 258.867,9.588 259.283,10.617C259.382,10.834 259.599,12.337 260.055,12.871C260.173,12.99 260.213,13.128 260.233,13.207C260.292,13.523 260.055,13.741 260.074,14.215C260.134,14.848 260.332,16.331 260.332,16.331L260.431,17.557C260.434,17.9 260.454,18.243 260.49,18.585C260.49,18.901 260.609,19.277 260.708,19.554C260.985,20.305 263.023,22.777 263.023,22.777L263.083,22.836L263.854,23.528L263.914,23.528C263.914,23.528 265.359,24.655 265.814,24.675C266.309,24.675 266.665,24.576 267.536,24.339C268.387,24.082 269.653,24.003 270.326,23.924C270.88,23.924 271.335,24.201 271.553,24.616C271.553,24.675 271.613,24.735 271.652,24.774C271.83,25.248 272.186,29.421 272.464,31.952C272.741,34.503 272.879,33.89 272.998,34.957C273.117,36.024 272.899,39.01 272.661,39.366C272.423,39.722 271.731,39.623 271.355,40.117C271.138,40.394 269.792,48.52 269.911,49.509C269.911,49.628 269.91,49.766 269.97,49.885C270.148,50.597 270.682,51.19 270.88,51.882C270.88,51.981 270.88,52.1 270.94,52.198C270.94,52.949 270.762,53.661 270.682,54.413L270.682,54.947C270.682,55.58 270.682,56.232 270.86,56.826C271.039,57.38 270.959,60.879 270.385,61.848C269.95,62.659 270.009,63.588 270.287,64.478L270.287,64.577C270.287,64.577 271.434,70.133 270.999,72.882C270.841,73.811 269.772,74.978 268.624,75.215C267.437,75.472 266.566,75.334 265.992,75.689C265.418,76.044 265.141,76.46 264.923,76.994C264.864,77.172 264.765,78.002 264.804,78.655C264.817,78.921 265.033,79.137 265.299,79.149L276.996,79.149C277.55,79.149 277.53,78.141 277.53,78.081C277.53,78.081 277.629,76.994 277.372,76.025C277.114,75.096 276.897,73.969 276.877,73.178C276.837,72.407 276.62,71.339 277.035,70.528C277.293,70.093 278.064,68.808 277.946,67.186C277.847,65.94 278.045,64.596 278.223,63.31L285.407,63.31C285.842,66.77 287.406,70.013 287.841,73.493C287.96,74.581 287.524,76.024 287.406,77.606C287.369,78.106 287.369,78.609 287.406,79.109L294.412,79.109C295.381,79.109 294.887,77.507 294.728,76.796C294.57,76.104 294.194,76.084 294.016,75.768C293.798,75.353 293.6,74.898 293.383,73.988C293.166,73.078 293.165,71.081 293.066,70.429C292.908,69.302 293.284,68.709 293.402,67.779C293.462,66.553 293.62,64.774 293.719,63.31L299.122,63.31C298.964,64.081 298.746,64.832 298.528,65.584C297.558,67.917 298.944,70.231 299.28,72.544C299.379,73.572 299.122,74.6 299.122,75.688C298.845,76.696 298.706,77.804 298.845,78.812C298.845,79.069 299.023,79.128 299.26,79.128L305.415,79.128C305.91,79.069 305.633,78.1 305.693,77.566C305.693,76.696 305.059,76.063 304.663,75.351C304.663,73.097 304.822,70.704 305.079,68.49C305.079,67.58 305.257,66.592 305.079,65.682C304.921,64.753 305.455,64.021 305.792,63.369L307.157,63.369C307.058,64.457 306.979,65.524 306.821,65.86C306.484,66.196 306.108,67.165 306.168,67.738C306.168,69.023 305.851,70.012 306.049,71.989C306.207,73.946 307.236,74.955 306.92,76.477C306.86,77.169 306.86,77.881 306.86,78.632C306.86,79.383 306.86,79.126 307.038,79.166L316.716,79.166C316.815,79.166 316.835,79.067 316.874,78.948C316.973,78.394 317.033,77.643 316.617,77.129C316.281,76.496 315.588,76.358 314.895,76.121C314.361,75.963 312.303,75.567 311.887,74.994C311.135,73.847 311.452,72.463 311.887,71.257C312.164,70.387 312.323,69.477 312.58,68.568C313.213,67.223 312.303,66.571 312.421,65.345C312.54,64.277 313.49,60.639 313.886,59.947C314.104,59.235 314.104,56.131 314.658,55.202C315.212,54.767 315.093,53.917 315.252,53.165C315.687,50.97 315.786,49.131 314.915,48.42C313.886,47.57 315.133,45.731 315.014,44.149C315.014,43.734 315.073,42.112 315.014,41.737C315.014,41.48 314.955,41.322 315.014,41.401C316.261,42.172 316.36,43.279 317.132,44.743C317.547,45.494 317.567,46.463 316.795,47.056C316.694,47.178 316.638,47.332 316.637,47.491C316.894,48.895 318.517,47.965 319.131,47.234C319.447,46.898 319.546,46.364 319.724,45.929C320.437,44.644 319.17,43.279 319.408,42.034L319.408,41.935L319.348,41.895L319.427,41.856L319.427,41.859Z" style="fill:white;fill-rule:nonzero;"/>
        </g>
    </g>
</svg>
